<svg version="1" xmlns="http://www.w3.org/2000/svg" width="933.333" height="933.333" viewBox="0 0 700.000000 700.000000"><path d="M53.4 1.5C26.7 7.3 5.6 29.3 1 56c-.8 4.7-1 88.6-.8 298 .3 281.3.4 291.7 2.2 297 8 23.7 23.9 39.5 47.2 46.7 5.7 1.7 17.6 1.8 300.4 1.8 282.8 0 294.7-.1 300.4-1.8 23.5-7.3 40-23.8 47.3-47.3 1.7-5.7 1.8-17.6 1.8-300.4 0-282.8-.1-294.7-1.8-300.4-7.2-23.3-23-39.2-46.7-47.2C645.7.6 635.4.5 352.5.3 111.8.2 58.4.4 53.4 1.5zm472 149c30.5 4 54.5 13.3 66.3 25.6 3.5 3.7 6.3 9.5 6.3 13.2 0 11.8-13.7 38.5-23.7 45.9-4.9 3.8-8.1 3.6-21.1-1.2-22.7-8.3-41.7-11.1-62.4-9-15.9 1.5-23.8 4.3-30.6 10.5-7.1 6.4-10.2 12.9-10.2 21.1 0 18.2 10.6 32.2 32.4 42.8 6.1 3 15.1 7 19.9 9 28.2 11.6 56.1 25.5 68.3 34.2 13.5 9.5 28.1 27 34.9 41.7 6.9 14.9 10.3 36.8 9.1 58.3-1.5 26.8-7.3 46.2-19.2 64.1-25.1 37.8-68.2 55-128.4 51.3-20.1-1.2-33.3-3-47.5-6.5-33.2-8-55.8-20.1-65.3-35-4.9-7.8-2.7-19 6.9-35 6.5-10.9 13.8-18.8 20.2-22 6.3-3 6.2-3 25.2 6 31.1 14.7 39.2 16.9 63 17 20.3 0 25.6-1 37.8-7.3 11.9-6.1 17.1-15.6 17.2-31.2 0-7.7-.3-9.2-3.3-15.2-4.3-8.7-13.4-17.1-25-23.2-4.8-2.4-20.4-9.5-34.7-15.6-29.5-12.6-38.6-17.3-53.4-27.3-30.5-20.7-45.3-47.4-48.1-86.7-2.7-37.6 6.8-66.5 29.1-88.9 19.7-19.6 44.5-31.2 78.5-36.5 12.4-1.9 43.5-2 57.8-.1zm-212.7 4.9c6.7 4.1 9.2 13.7 9.2 35.1 0 22-2.8 32.2-9.9 35.7-3.2 1.7-8.6 1.8-68.2 1.8H179v84H305.7l3.4 2.3c6.7 4.4 8.9 13 8.9 34.7 0 22.1-2.5 31.4-9.3 35.6-3 1.8-6.2 1.9-66.4 2.2l-63.3.3v75.2c0 48.5-.4 76.5-1 78.9-1.5 5.1-6.8 9.3-14.9 11.5-9.7 2.7-48.8 2.7-57.6 0-7.2-2.3-11-4.8-13.3-9-1.6-3-1.7-14.6-1.7-189.2v-186l2.3-4.7c2.7-5.5 7.2-8.6 14-9.8 2.6-.4 49.2-.7 103.7-.6 95.5.1 99.1.2 102.2 2z"/></svg>